<?xml version="1.0" encoding="utf-8"?>
<!-- Generator: Adobe Illustrator 22.0.0, SVG Export Plug-In . SVG Version: 6.00 Build 0)  -->
<svg version="1.1" id="Layer_1" xmlns="http://www.w3.org/2000/svg" xmlns:xlink="http://www.w3.org/1999/xlink" x="0px" y="0px"
	 viewBox="0 0 227.7 53" style="enable-background:new 0 0 227.7 53;" xml:space="preserve">
<style type="text/css">
	.st0{fill:#FFFFFF;}
	.st1{fill:#FFFFFF;stroke:#FFFFFF;stroke-width:0.5;stroke-miterlimit:10;}
	.st2{fill:#072863;stroke:#072863;stroke-miterlimit:10;}
	.st3{fill:#FFFFFF;stroke:#FFFFFF;stroke-width:1.5;stroke-miterlimit:10;}
</style>
<g>
	<rect x="170.2" class="st0" width="57.5" height="53"/>
	<path class="st1" d="M21.1,6.8L20.9,8l-0.5,0.1c-2.4-1.3-4.9-1.9-7.5-1.9c-2.1,0-4,0.5-5.5,1.4c-1.6,0.9-2.8,2.1-3.6,3.6
		c-0.8,1.5-1.3,2.9-1.3,4.5c0,1.6,0.4,2.9,1.3,4.1c0.8,1.1,1.9,2.1,3.1,2.8c1.2,0.7,2.9,1.6,5.1,2.7c2.4,1.2,4.3,2.3,5.6,3.1
		c1.4,0.9,2.6,2,3.6,3.5s1.5,3.1,1.5,5.1c0,2-0.5,3.8-1.6,5.5c-1.1,1.7-2.5,3.1-4.4,4.1c-1.9,1-4,1.5-6.3,1.5
		c-1.7,0-3.5-0.3-5.3-0.8c-1.8-0.5-3.4-1.3-4.8-2.3l0.1-1.3l0.3-0.1c1.3,1.1,2.8,1.9,4.6,2.4c1.7,0.5,3.4,0.8,5,0.8
		c2.2,0,4.1-0.5,5.8-1.4c1.7-0.9,3-2.2,3.9-3.7c0.9-1.5,1.4-3.1,1.4-4.7c0-1.7-0.4-3.1-1.3-4.4c-0.9-1.2-1.9-2.2-3.2-3
		c-1.3-0.8-3-1.7-5.2-2.8c-2.3-1.2-4.2-2.2-5.5-3c-1.3-0.9-2.5-2-3.4-3.4c-0.9-1.4-1.4-3-1.4-4.9c0-1.9,0.5-3.7,1.5-5.3
		c1-1.6,2.4-2.9,4.2-3.8c1.8-0.9,3.9-1.4,6.1-1.4C15.7,4.9,18.4,5.5,21.1,6.8z"/>
	<path class="st1" d="M63,47.8h-1.3v-21H34.6v21h-1.3V5.1h1.3v20.3h27.1V5.1H63V47.8z"/>
	<polygon class="st1" points="89.1,5.1 87.7,5.1 71,47.8 72.6,47.8 73.5,44.9 88.2,7.4 88.5,7.4 102.1,44.9 102.9,47.8 104.5,47.8 	
		"/>
	<path class="st1" d="M131.2,8.7c2.1,1.8,3.1,4.4,3.1,7.7c0,3.9-1.2,7-3.6,9.1c-2.4,2.1-5.9,3.2-10.4,3.2h-5.9V43h-1.3v-37l9.3-0.1
		C126.2,6,129.2,6.9,131.2,8.7z M130.2,24.1c1.9-2,2.8-4.5,2.8-7.7c0-2.9-0.9-5.1-2.6-6.7c-1.8-1.6-4.3-2.4-7.5-2.6l-8.5,0.1v20.3
		h7.9C125.7,27.2,128.3,26,130.2,24.1z M114.4,33.6V48h-1.3V11L114.4,33.6z"/>
	<path class="st1" d="M165.7,47.8h-20.5V5.1h20.3l0.2,0.3l-0.3,1.1h-19V25h15.7l0.2,0.3l-0.3,1.1h-15.6v20.1h19.3l0.2,0.3
		L165.7,47.8z"/>
	<g>
		<path class="st2" d="M179.4,5.3h-1.2v8.3c0.4-0.1,0.8-0.2,1.2-0.4V5.3z"/>
		<path class="st2" d="M178.2,17.5V48h1.2V17C179,17.2,178.6,17.4,178.2,17.5z"/>
		<path class="st2" d="M220.3,48h-1.2L194.3,8.1H194L194,34.7V48h-1.2V35.3l0.1-29.9h1.2l24.8,39.9h0.2l0.1-39.8l1.2-0.1l-0.1,31
			L220.3,48z"/>
	</g>
	<line class="st3" x1="79.9" y1="26.4" x2="96.7" y2="26.4"/>
</g>
</svg>
