<?xml version="1.0" encoding="UTF-8"?>
<svg width="416px" height="106px" viewBox="0 0 416 106" version="1.1" xmlns="http://www.w3.org/2000/svg" xmlns:xlink="http://www.w3.org/1999/xlink">
    <!-- Generator: Sketch 64 (93537) - https://sketch.com -->
    <title>Task notification - info</title>
    <desc>Created with Sketch.</desc>
    <defs>
        <rect id="path-1" x="1" y="0" width="415" height="105" rx="8"></rect>
        <filter x="-1.7%" y="-4.8%" width="103.4%" height="113.4%" filterUnits="objectBoundingBox" id="filter-2">
            <feMorphology radius="0.05" operator="dilate" in="SourceAlpha" result="shadowSpreadOuter1"></feMorphology>
            <feOffset dx="0" dy="2" in="shadowSpreadOuter1" result="shadowOffsetOuter1"></feOffset>
            <feGaussianBlur stdDeviation="2" in="shadowOffsetOuter1" result="shadowBlurOuter1"></feGaussianBlur>
            <feComposite in="shadowBlurOuter1" in2="SourceAlpha" operator="out" result="shadowBlurOuter1"></feComposite>
            <feColorMatrix values="0 0 0 0 0.898522418   0 0 0 0 0.898522418   0 0 0 0 0.898522418  0 0 0 0.5 0" type="matrix" in="shadowBlurOuter1"></feColorMatrix>
        </filter>
        <polygon id="path-3" points="0 0.0268799979 14.6735389 0.0268799979 14.6735389 14.6995789 0 14.6995789"></polygon>
        <polygon id="path-5" points="0.000251999981 0.0272999979 14.6739589 0.0272999979 14.6739589 14.6999989 0.000251999981 14.6999989"></polygon>
        <polygon id="path-7" points="0.00104400001 0.299280002 61.4574098 0.299280002 61.4574098 61.7692173 0.00104400001 61.7692173"></polygon>
    </defs>
    <g id="Task-notification---info" stroke="none" stroke-width="1" fill="none" fill-rule="evenodd">
        <g>
            <g id="Rectangle">
                <use fill="black" fill-opacity="1" filter="url(#filter-2)" xlink:href="#path-1"></use>
                <use stroke="#979797" stroke-width="0.1" fill="#FFFFFF" fill-rule="evenodd" xlink:href="#path-1"></use>
            </g>
            <text id="INFO-MESSAGE-HERE" font-family="Raleway-Bold, Raleway" font-size="18" font-weight="bold" letter-spacing="0.450000007" fill="#3D6FC5">
                <tspan x="117" y="41">INFO MESSAGE HERE</tspan>
            </text>
            <text id="Description-of-info" font-family="Raleway-Regular, Raleway" font-size="10" font-weight="normal" letter-spacing="0.250000004" fill="#D8D8D8">
                <tspan x="119" y="58">Description of info message here. this</tspan>
                <tspan x="119" y="69">notification is displayed 5 seconds, disapears automatically </tspan>
                <tspan x="119" y="80">if user doesn’t  click on close</tspan>
            </text>
            <g id="icon-resp-menu---close-resp-menu" transform="translate(388.000000, 10.000000)">
                <g id="Group-3" transform="translate(0.000000, 0.078288)">
                    <mask id="mask-4" fill="white">
                        <use xlink:href="#path-3"></use>
                    </mask>
                    <g id="Clip-2"></g>
                    <path d="M0.246119981,14.4534589 C-0.0823199937,14.1250189 -0.0823199937,13.594139 0.246119981,13.265699 L13.240079,0.272579979 C13.567679,-0.0550199958 14.0993989,-0.0550199958 14.4278389,0.272579979 C14.7554389,0.601019954 14.7554389,1.13273991 14.4278389,1.46033989 L1.43387989,14.4534589 C1.2700799,14.6172589 1.05503992,14.6995789 0.839999936,14.6995789 C0.624959952,14.6995789 0.409919969,14.6172589 0.246119981,14.4534589 Z" id="Fill-1" fill="#F2F3F6" mask="url(#mask-4)"></path>
                </g>
                <g id="Group-6" transform="translate(0.000000, 0.078288)">
                    <mask id="mask-6" fill="white">
                        <use xlink:href="#path-5"></use>
                    </mask>
                    <g id="Clip-5"></g>
                    <path d="M13.239911,14.4538789 L0.245951981,1.46075989 C-0.0816479937,1.13315991 -0.0816479937,0.601439954 0.245951981,0.272999979 C0.574391956,-0.0545999958 1.10611192,-0.0545999958 1.43371189,0.272999979 L14.4276709,13.266119 C14.7561109,13.594559 14.7561109,14.1254389 14.4276709,14.4538789 C14.2638709,14.6176789 14.0488309,14.6999989 13.8337909,14.6999989 C13.618751,14.6999989 13.403711,14.6176789 13.239911,14.4538789 Z" id="Fill-4" fill="#F2F3F6" mask="url(#mask-6)"></path>
                </g>
            </g>
            <path d="M8,6.48014975e-12 L16,6.48014975e-12 L16,105.232422 L8,105.232422 C3.581722,105.232422 0,101.709868 0,97.3645772 L0,7.86784463 C0,3.52255403 3.581722,6.48014975e-12 8,6.48014975e-12 Z" id="Rectangle" fill="#3D6FC5"></path>
            <g id="icon---info-incon" opacity="0.300571987" transform="translate(30.000000, 22.000000)">
                <path d="M33.2928992,27.9208232 L33.2928992,43.2467432 C33.2928992,44.3064032 33.0423392,45.1102832 32.5386092,45.6531633 C32.0348792,46.1986533 31.3902092,46.4700933 30.6124292,46.4700933 C29.8372592,46.4700933 29.2056392,46.1908233 28.7201792,45.6348933 C28.2373292,45.0789632 27.9919892,44.2829132 27.9919892,43.2467432 L27.9919892,28.0774232 C27.9919892,27.0282031 28.2373292,26.2373731 28.7201792,25.7075431 C29.2056392,25.1751031 29.8372592,24.9114931 30.6124292,24.9114931 C31.3902092,24.9114931 32.0348792,25.1751031 32.5386092,25.7075431 C33.0423392,26.2373731 33.2928992,26.9760031 33.2928992,27.9208232 M30.6724592,22.4424331 C29.9338292,22.4424331 29.3022092,22.2179731 28.7775992,21.7638331 C28.2555992,21.3123031 27.9919892,20.6702431 27.9919892,19.8402631 C27.9919892,19.0911931 28.2608192,18.4726231 28.7958692,17.9871631 C29.3361392,17.5017031 29.9599292,17.2589731 30.6724592,17.2589731 C31.3614992,17.2589731 31.9670192,17.4782131 32.4968492,17.9166931 C33.0266792,18.3577831 33.2928992,18.9998431 33.2928992,19.8402631 C33.2928992,20.6571931 33.0318992,21.2940331 32.5177292,21.7533931 C31.9983392,22.2127531 31.3875992,22.4424331 30.6724592,22.4424331" id="Fill-1" fill="#3D6FC5"></path>
                <g id="Group-5" transform="translate(0.000000, 0.571503)">
                    <mask id="mask-8" fill="white">
                        <use xlink:href="#path-7"></use>
                    </mask>
                    <g id="Clip-4"></g>
                    <path d="M30.7390142,5.51849703 C23.9243041,5.51849703 17.5167541,8.17286704 12.6986941,12.9883171 C7.87541404,17.8089871 5.22104403,24.2191471 5.22104403,31.0338572 C5.22104403,37.8537872 7.87019404,44.2613372 12.6934741,49.0793973 C17.5115341,53.8974573 23.9138641,56.5492173 30.7285742,56.5492173 C37.5485042,56.5492173 43.9612742,53.8948473 48.7845543,49.0741773 C58.7312643,39.1248572 58.7260443,22.9376371 48.7793343,12.9883171 C43.9612742,8.17286704 37.5537242,5.51849703 30.7390142,5.51849703 M30.7285742,61.7692173 C22.5227341,61.7692173 14.8049641,58.5745773 9.00293405,52.7699373 C3.19568402,46.9679073 0.00104400001,39.2475272 0.00104400001,31.0338572 C0.00104400001,22.8227971 3.20090402,15.1024171 9.00815405,9.29777705 C14.8075741,3.49574702 22.5279541,0.298497002 30.7390142,0.298497002 C38.9474642,0.298497002 46.6652343,3.49574702 52.4698743,9.29777705 C64.4497744,21.2802871 64.4549944,40.7795972 52.4750943,52.7673273 C46.6652343,58.5719673 38.9474642,61.7692173 30.7285742,61.7692173" id="Fill-3" fill="#3D6FC5" mask="url(#mask-8)"></path>
                </g>
            </g>
        </g>
    </g>
</svg>