<?xml version="1.0" encoding="UTF-8"?>
<svg width="168px" height="321px" viewBox="0 0 168 321" version="1.1" xmlns="http://www.w3.org/2000/svg" xmlns:xlink="http://www.w3.org/1999/xlink">
    <!-- Generator: Sketch 64 (93537) - https://sketch.com -->
    <title>Integration logic - on click task condition</title>
    <desc>Created with Sketch.</desc>
    <defs>
        <path d="M7.46798904,0 L160.54373,0 C164.115901,0 167.011719,6.5053532 167.011719,14.530113 L167.011719,304.592404 C167.011719,312.617163 164.115901,319.122517 160.54373,319.122517 L7.46798904,319.122517 C3.89581733,319.122517 1,312.617163 1,304.592404 L1,14.530113 C1,6.5053532 3.89581733,0 7.46798904,0 Z" id="path-1"></path>
        <filter x="-10.4%" y="-5.4%" width="123.2%" height="112.1%" filterUnits="objectBoundingBox" id="filter-2">
            <feMorphology radius="0.25" operator="dilate" in="SourceAlpha" result="shadowSpreadOuter1"></feMorphology>
            <feOffset dx="2" dy="2" in="shadowSpreadOuter1" result="shadowOffsetOuter1"></feOffset>
            <feGaussianBlur stdDeviation="6" in="shadowOffsetOuter1" result="shadowBlurOuter1"></feGaussianBlur>
            <feComposite in="shadowBlurOuter1" in2="SourceAlpha" operator="out" result="shadowBlurOuter1"></feComposite>
            <feColorMatrix values="0 0 0 0 0.846984327   0 0 0 0 0.847106636   0 0 0 0 0.846957505  0 0 0 0.661795236 0" type="matrix" in="shadowBlurOuter1"></feColorMatrix>
        </filter>
        <polygon id="path-3" points="0.116928 0.0937536424 4.648448 0.0937536424 4.648448 4.89589828 0.116928 4.89589828"></polygon>
        <polygon id="path-5" points="0.00026 0.464211921 14.55896 0.464211921 14.55896 6.08902781 0.00026 6.08902781"></polygon>
        <polygon id="path-7" points="0 0.573721854 14.55909 0.573721854 14.55909 6.1986755 0 6.1986755"></polygon>
        <polygon id="path-9" points="0 3.39072848e-05 7.68192 3.39072848e-05 7.68192 5.81593814 0 5.81593814"></polygon>
        <polygon id="path-11" points="0 0.593140132 15.0520608 0.593140132 15.0520608 6.40847682 0 6.40847682"></polygon>
        <polygon id="path-13" points="0 3.39072848e-05 7.68192 3.39072848e-05 7.68192 5.81593814 0 5.81593814"></polygon>
        <polygon id="path-15" points="0 0.000124609272 14.070252 0.000124609272 14.070252 14.3581656 0 14.3581656"></polygon>
        <polygon id="path-17" points="0 3.39072848e-05 7.68192 3.39072848e-05 7.68192 5.81593814 0 5.81593814"></polygon>
        <polygon id="path-19" points="0 0.301020397 7.108584 0.301020397 7.108584 7.83258278 0 7.83258278"></polygon>
        <polygon id="path-21" points="0 0.000331125828 14.856875 0.000331125828 14.856875 15.742053 0 15.742053"></polygon>
        <polygon id="path-23" points="0 3.39072848e-05 7.68192 3.39072848e-05 7.68192 5.81593814 0 5.81593814"></polygon>
        <polygon id="path-25" points="0 3.2e-05 7.68192 3.2e-05 7.68192 5.48879162 0 5.48879162"></polygon>
        <polygon id="path-27" points="0 11.5946208 16.881312 11.5946208 16.881312 -6.72e-05 0 -6.72e-05"></polygon>
    </defs>
    <g id="Integration-logic---on-click-task-condition" stroke="none" stroke-width="1" fill="none" fill-rule="evenodd">
        <g>
            <g>
                <g id="Rectangle">
                    <use fill="black" fill-opacity="1" filter="url(#filter-2)" xlink:href="#path-1"></use>
                    <use stroke="#D8D8D8" stroke-width="0.5" fill="#FFFFFF" fill-rule="evenodd" xlink:href="#path-1"></use>
                </g>
                <text id="Splitter-Join-Multic" font-family="Raleway-Regular, Raleway" font-size="10.8000012" font-weight="normal" line-spacing="14.4" letter-spacing="0.193846196" fill="#031739">
                    <tspan x="57.6" y="217.384106">Splitter</tspan>
                    <tspan x="57.6" y="231.784106" line-spacing="5.4"></tspan>
                    <tspan x="57.6" y="237.184106">Join</tspan>
                    <tspan x="57.6" y="251.584106" line-spacing="5.4"></tspan>
                    <tspan x="57.6" y="256.984106">Multicast</tspan>
                </text>
                <line x1="2.5" y1="276.02649" x2="165.5" y2="276.02649" id="Line-4" stroke="#F3F3F3" stroke-linecap="square"></line>
                <g id="icon---multicast" transform="translate(36.000000, 251.125828)">
                    <path d="M0.56,5.3965902 L0.56,5.3965902 C0.25032,5.3965902 0,5.13075709 0,4.80321272 L0.00112,1.18895046 C0.00112,0.860812715 0.25144,0.59557298 0.56112,0.59557298 L3.97264,0.594386225 C4.2812,0.594386225 4.53264,0.85962596 4.53264,1.18776371 C4.53264,1.51530808 4.28176,1.78114119 3.97264,1.78114119 L1.12112,1.78232795 L1.12,4.80321272 C1.12,5.13135046 0.86968,5.3965902 0.56,5.3965902" id="Fill-1" fill="#031739"></path>
                    <path d="M6.804224,8.39706278 C6.660864,8.39706278 6.517504,8.33891179 6.408304,8.22320318 L0.630224,2.10132768 C0.411264,1.86931709 0.411264,1.49370914 0.630224,1.26229192 C0.848624,1.03028132 1.203104,1.03028132 1.422064,1.26229192 L7.200144,7.38416742 C7.419104,7.61617801 7.419104,7.99119258 7.200144,8.22320318 C7.090944,8.33891179 6.947584,8.39706278 6.804224,8.39706278" id="Fill-3" fill="#031739"></path>
                    <g id="Group-7" transform="translate(8.960000, 0.499505)">
                        <mask id="mask-4" fill="white">
                            <use xlink:href="#path-3"></use>
                        </mask>
                        <g id="Clip-6"></g>
                        <path d="M4.088448,4.89589828 C3.779888,4.89589828 3.528448,4.63065854 3.528448,4.30252079 L3.527328,1.28163603 L0.676928,1.28044927 C0.367248,1.28044927 0.116928,1.01461616 0.116928,0.687071788 C0.116928,0.35893404 0.367248,0.0936943046 0.676928,0.0936943046 L4.087328,0.0948810596 C4.397008,0.0948810596 4.647328,0.360120795 4.647328,0.688258543 L4.648448,4.30252079 C4.648448,4.63006517 4.398128,4.89589828 4.088448,4.89589828" id="Fill-5" fill="#031739" mask="url(#mask-4)"></path>
                    </g>
                    <path d="M6.818448,8.38199099 C6.675088,8.38199099 6.531728,8.32384 6.422528,8.20813139 C6.203568,7.97612079 6.203568,7.60110623 6.422528,7.36909563 L12.187728,1.26146119 C12.406688,1.0294506 12.760608,1.0294506 12.979568,1.26146119 C13.198528,1.49347179 13.198528,1.86848636 12.979568,2.10049695 L7.214368,8.20813139 C7.105168,8.32384 6.961808,8.38199099 6.818448,8.38199099" id="Fill-8" fill="#031739"></path>
                    <path d="M6.7298,14.7405648 C6.42012,14.7405648 6.1698,14.475325 6.1698,14.1471873 L6.1698,7.76897272 C6.1698,7.44083497 6.42012,7.17559523 6.7298,7.17559523 C7.03948,7.17559523 7.2898,7.44083497 7.2898,7.76897272 L7.2898,14.1471873 C7.2898,14.475325 7.03948,14.7405648 6.7298,14.7405648" id="Fill-10" fill="#031739"></path>
                </g>
                <g id="icon---join" transform="translate(35.000000, 232.052980)">
                    <g id="Group-3" transform="translate(0.000000, 0.224668)">
                        <mask id="mask-6" fill="white">
                            <use xlink:href="#path-5"></use>
                        </mask>
                        <g id="Clip-2"></g>
                        <path d="M13.90896,6.08902781 L9.27251,6.08902781 C9.09506,6.08902781 8.92346,6.0112 8.80061,5.8741404 L5.20156,1.84155762 L0.65026,1.84155762 C0.29081,1.84155762 0.00026,1.53369007 0.00026,1.15281589 C0.00026,0.771941722 0.29081,0.464074172 0.65026,0.464074172 L5.48041,0.464074172 C5.65981,0.464074172 5.82946,0.541901987 5.95296,0.679650331 L9.55331,4.71154437 L13.90896,4.71154437 C14.26841,4.71154437 14.55896,5.01941192 14.55896,5.40028609 C14.55896,5.78116026 14.26841,6.08902781 13.90896,6.08902781" id="Fill-1" fill="#031739" mask="url(#mask-6)"></path>
                    </g>
                    <g id="Group-6" transform="translate(0.000000, 4.357118)">
                        <mask id="mask-8" fill="white">
                            <use xlink:href="#path-7"></use>
                        </mask>
                        <g id="Clip-5"></g>
                        <path d="M5.48054,6.1986755 L0.64974,6.1986755 C0.29094,6.1986755 -0.00026,5.89080795 -0.00026,5.50993377 C-0.00026,5.1290596 0.29094,4.82119205 0.64974,4.82119205 L5.20104,4.82119205 L8.80009,0.789298013 C8.92359,0.651549669 9.09519,0.573721854 9.27264,0.573721854 L13.90909,0.573721854 C14.26854,0.573721854 14.55909,0.881589404 14.55909,1.26246358 C14.55909,1.64333775 14.26854,1.9512053 13.90909,1.9512053 L9.55344,1.9512053 L5.95309,5.98378808 C5.82959,6.12084768 5.65929,6.1986755 5.48054,6.1986755" id="Fill-4" fill="#031739" mask="url(#mask-8)"></path>
                    </g>
                    <path d="M11.603475,8.95364238 C11.437075,8.95364238 11.270675,8.8861457 11.143925,8.75184106 C10.889775,8.48323179 10.889775,8.04725828 11.143925,7.77796026 L13.197925,5.59878146 L11.143925,3.41960265 C10.889775,3.15030464 10.889775,2.71364238 11.143925,2.44572185 C11.398075,2.17642384 11.808875,2.17642384 12.063025,2.44572185 L14.576575,5.11184106 C14.830725,5.38113907 14.830725,5.81642384 14.576575,6.08572185 L12.063025,8.75184106 C11.936275,8.8861457 11.769875,8.95364238 11.603475,8.95364238" id="Fill-7" fill="#031739"></path>
                </g>
                <g id="icon--splitter" transform="translate(36.000000, 210.860927)" fill="#031739">
                    <path d="M1.9375,5.58463576 C1.421,5.58463576 1,6.03019868 1,6.57801325 C1,7.12582781 1.421,7.57139073 1.9375,7.57139073 C2.455,7.57139073 2.875,7.12582781 2.875,6.57801325 C2.875,6.03019868 2.455,5.58463576 1.9375,5.58463576 M1.9375,8.63099338 C0.869,8.63099338 0,7.71019868 0,6.57801325 C0,5.44582781 0.869,4.52503311 1.9375,4.52503311 C3.006,4.52503311 3.875,5.44582781 3.875,6.57801325 C3.875,7.71019868 3.006,8.63099338 1.9375,8.63099338" id="Fill-1"></path>
                    <path d="M9.8955,1.05960265 C9.379,1.05960265 8.958,1.50516556 8.958,2.05298013 C8.958,2.6007947 9.379,3.04635762 9.8955,3.04635762 C10.413,3.04635762 10.833,2.6007947 10.833,2.05298013 C10.833,1.50516556 10.413,1.05960265 9.8955,1.05960265 M9.8955,4.10596026 C8.827,4.10596026 7.958,3.18516556 7.958,2.05298013 C7.958,0.920794702 8.827,-1.88223241e-15 9.8955,-1.88223241e-15 C10.964,-1.88223241e-15 11.833,0.920794702 11.833,2.05298013 C11.833,3.18516556 10.964,4.10596026 9.8955,4.10596026" id="Fill-3"></path>
                    <path d="M9.8955,10.1101987 C9.379,10.1101987 8.958,10.5557616 8.958,11.1035762 C8.958,11.6513907 9.379,12.0969536 9.8955,12.0969536 C10.413,12.0969536 10.833,11.6513907 10.833,11.1035762 C10.833,10.5557616 10.413,10.1101987 9.8955,10.1101987 M9.8955,13.1565563 C8.827,13.1565563 7.958,12.2357616 7.958,11.1035762 C7.958,9.97139073 8.827,9.05059603 9.8955,9.05059603 C10.964,9.05059603 11.833,9.97139073 11.833,11.1035762 C11.833,12.2357616 10.964,13.1565563 9.8955,13.1565563" id="Fill-5"></path>
                    <path d="M8.416,10.8288212 C8.331,10.8288212 8.245,10.8060397 8.166,10.7578278 L3.0625,7.63570861 C2.823,7.48895364 2.741,7.16524503 2.88,6.9114702 C3.0175,6.65769536 3.323,6.57133775 3.5625,6.71756291 L8.666,9.84021192 C8.9055,9.98643709 8.9875,10.3101457 8.8495,10.5639205 C8.757,10.7339868 8.589,10.8288212 8.416,10.8288212" id="Fill-7"></path>
                    <path d="M3.31345,6.50919205 C3.14045,6.50919205 2.97245,6.41435762 2.87995,6.24429139 C2.74095,5.99051656 2.82345,5.66680795 3.06245,5.52058278 L8.16595,2.39793377 C8.40345,2.25170861 8.71095,2.33806623 8.84945,2.59184106 C8.98745,2.84561589 8.90545,3.1693245 8.66595,3.31607947 L3.56245,6.43819868 C3.48445,6.4864106 3.39845,6.50919205 3.31345,6.50919205" id="Fill-9"></path>
                </g>
                <rect id="Rectangle" fill="#22C2AE" x="0" y="175.89404" width="167" height="26.4900662"></rect>
                <text id="MESSAGE-ROUTING" font-family="Raleway-SemiBold, Raleway" font-size="10.8000012" font-weight="500" letter-spacing="0.193846196" fill="#FFFFFF">
                    <tspan x="33.6" y="193.274834">MESSAGE ROUTING</tspan>
                </text>
                <g id="icon-)-carret-open" transform="translate(151.000000, 190.728477) rotate(178.000000) translate(-151.000000, -190.728477) translate(147.000000, 187.549669)">
                    <mask id="mask-10" fill="white">
                        <use xlink:href="#path-9"></use>
                    </mask>
                    <g id="Clip-2"></g>
                    <path d="M7.576608,5.86277298 C7.869088,6.37918093 7.518048,7.04037298 6.947168,7.04037298 L0.734688,7.04037298 C0.163808,7.04037298 -0.187232,6.37918093 0.105248,5.86277298 L3.212128,0.376574305 C3.497248,-0.126270728 4.185248,-0.12525351 4.469728,0.376574305 L7.576608,5.86277298 Z" id="Fill-1" stroke="#FFFFFF" stroke-width="0.8" mask="url(#mask-10)"></path>
                </g>
                <g id="icon--m-essage-routing" transform="translate(12.200000, 181.615894)">
                    <g id="Group-3" transform="translate(0.000000, 2.141713)">
                        <mask id="mask-12" fill="white">
                            <use xlink:href="#path-11"></use>
                        </mask>
                        <g id="Clip-2"></g>
                        <path d="M5.4653088,6.40847682 L0.6719328,6.40847682 C0.3003168,6.40847682 -6.72e-05,6.09018914 -6.72e-05,5.69642384 C-6.72e-05,5.30265854 0.3003168,4.98437086 0.6719328,4.98437086 L5.1750048,4.98437086 L8.8972128,0.816012715 C9.0248928,0.673602119 9.2009568,0.593140132 9.3857568,0.593140132 L14.3800608,0.593140132 C14.7510048,0.593140132 15.0520608,0.911427815 15.0520608,1.30519311 C15.0520608,1.69895841 14.7510048,2.01724609 14.3800608,2.01724609 L9.6747168,2.01724609 L5.9538528,6.18631629 C5.8261728,6.32801483 5.6487648,6.40847682 5.4653088,6.40847682" id="Fill-1" fill="#D8D8D8" mask="url(#mask-12)"></path>
                    </g>
                    <path d="M11.9962752,6.93696254 C11.8242432,6.93696254 11.6522112,6.86718135 11.5211712,6.72833102 C11.2584192,6.45063036 11.2584192,5.99990082 11.5211712,5.72148811 L13.6446912,3.46855248 L11.5211712,1.21561685 C11.2584192,0.937204132 11.2584192,0.485762543 11.5211712,0.208773934 C11.7839232,-0.0696387815 12.2086272,-0.0696387815 12.4713792,0.208773934 L15.0700032,2.96513102 C15.3327552,3.24354374 15.3327552,3.69356122 15.0700032,3.97197393 L12.4713792,6.72833102 C12.3403392,6.86718135 12.1683072,6.93696254 11.9962752,6.93696254" id="Fill-4" fill="#FFFFFF"></path>
                    <path d="M14.379792,12.9358665 L9.385488,12.9358665 C9.200688,12.9358665 9.024624,12.8554045 8.897616,12.713706 L5.175408,8.54463576 L0.672336,8.54463576 C0.30072,8.54463576 0.000336,8.22634808 0.000336,7.83258278 C0.000336,7.43881748 0.30072,7.1205298 0.672336,7.1205298 L5.46504,7.1205298 C5.649168,7.1205298 5.825904,7.20099179 5.953584,7.34340238 L9.674448,11.5117605 L14.379792,11.5117605 C14.751408,11.5117605 15.051792,11.8300482 15.051792,12.2238135 C15.051792,12.6175788 14.751408,12.9358665 14.379792,12.9358665" id="Fill-6" fill="#FFFFFF"></path>
                    <path d="M11.9962752,15.6707196 C11.8242432,15.6707196 11.6522112,15.6009384 11.5211712,15.4620881 C11.2584192,15.1843874 11.2584192,14.7336579 11.5211712,14.4552451 L13.6446912,12.2023095 L11.5211712,9.94937388 C11.2584192,9.67096117 11.2584192,9.21951958 11.5211712,8.94253097 C11.7839232,8.66411825 12.2086272,8.66411825 12.4713792,8.94253097 L15.0700032,11.6988881 C15.3327552,11.9773008 15.3327552,12.4273183 15.0700032,12.705731 L12.4713792,15.4620881 C12.3403392,15.6009384 12.1683072,15.6707196 11.9962752,15.6707196" id="Fill-8" fill="#FFFFFF"></path>
                </g>
                <g id="icon---script" transform="translate(39.000000, 153.642384)" fill="#031739">
                    <path d="M11.544246,11.1325256 C11.382966,11.1325256 11.221686,11.0677732 11.098836,10.9376011 C10.852506,10.6765891 10.852506,10.2540302 11.098836,9.99368583 L13.547646,7.39691762 L11.098836,4.79948185 C10.852506,4.53846993 10.852506,4.11591099 11.098836,3.85556662 C11.345166,3.59522225 11.743326,3.5945547 11.989656,3.85623417 L14.883876,6.92562755 C15.129576,7.18597192 15.129576,7.60853086 14.883876,7.86954278 L11.989656,10.9376011 C11.866806,11.0677732 11.705526,11.1325256 11.544246,11.1325256" id="Fill-1"></path>
                    <path d="M3.524094,11.1325256 C3.362814,11.1325256 3.201534,11.0677732 3.078684,10.9376011 L0.184464,7.86954278 C-0.061236,7.60853086 -0.061236,7.18597192 0.184464,6.92562755 L3.078684,3.85623417 C3.325014,3.5945547 3.723174,3.59522225 3.969504,3.85556662 C4.215834,4.11591099 4.215834,4.53846993 3.969504,4.79948185 L1.520694,7.39691762 L3.969504,9.99368583 C4.215834,10.2540302 4.215834,10.6765891 3.969504,10.9376011 C3.846654,11.0677732 3.685374,11.1325256 3.524094,11.1325256" id="Fill-3"></path>
                    <path d="M5.174127,14.7955709 C5.100417,14.7955709 5.026707,14.7815523 4.953627,14.7541828 C4.627917,14.6253457 4.461597,14.2408371 4.583817,13.8943788 L9.305037,0.435242384 C9.425367,0.0894516556 9.786987,-0.0861139073 10.114587,0.0420556291 C10.440297,0.170892715 10.606617,0.554733775 10.486287,0.900524503 L5.764437,14.3603285 C5.669937,14.629351 5.429907,14.7955709 5.174127,14.7955709" id="Fill-5"></path>
                </g>
                <text id="Script" font-family="Raleway-Regular, Raleway" font-size="10.8000012" font-weight="normal" line-spacing="14.4" letter-spacing="0.193846196" fill="#031739">
                    <tspan x="57.6" y="161.810596">Script</tspan>
                </text>
                <path d="M41,135.629139 L45.502,143.124768 L45.502,148.344371 L47.5,147.219073 L47.5,143.124238 L52,135.629139 L41,135.629139 Z M46.0015,142.968477 L41.8755,136.15894 L51.114,136.15894 L47,142.969007 L47,146.899603 L46.0015,147.46702 L46.0015,142.968477 Z" id="icon---filter" fill="#031739"></path>
                <text id="Filter" font-family="Raleway-Regular, Raleway" font-size="10.8000012" font-weight="normal" line-spacing="14.4" letter-spacing="0.193846196" fill="#031739">
                    <tspan x="57.6" y="142.810596">Filter</tspan>
                </text>
                <rect id="Rectangle" fill="#22C2AE" x="0" y="99.602649" width="167" height="26.4900662"></rect>
                <g id="icon-)-carret-open" transform="translate(151.000000, 113.377483) rotate(178.000000) translate(-151.000000, -113.377483) translate(147.000000, 110.198675)">
                    <mask id="mask-14" fill="white">
                        <use xlink:href="#path-13"></use>
                    </mask>
                    <g id="Clip-2"></g>
                    <path d="M7.576608,5.86277298 C7.869088,6.37918093 7.518048,7.04037298 6.947168,7.04037298 L0.734688,7.04037298 C0.163808,7.04037298 -0.187232,6.37918093 0.105248,5.86277298 L3.212128,0.376574305 C3.497248,-0.126270728 4.185248,-0.12525351 4.469728,0.376574305 L7.576608,5.86277298 Z" id="Fill-1" stroke="#FFFFFF" stroke-width="0.8" mask="url(#mask-14)"></path>
                </g>
                <text id="TRANSFORMATION" font-family="Raleway-SemiBold, Raleway" font-size="10.8000012" font-weight="500" letter-spacing="0.193846196" fill="#FFFFFF">
                    <tspan x="33.6" y="116.559603">TRANSFORMATION</tspan>
                </text>
                <g id="Icon--transformation" transform="translate(13.200000, 107.019868)">
                    <mask id="mask-16" fill="white">
                        <use xlink:href="#path-15"></use>
                    </mask>
                    <g id="Clip-2"></g>
                    <path d="M4.9530768,7.15637277 C5.1024288,7.15637277 5.2494288,7.21743131 5.3593848,7.3302027 C7.0181328,9.01616615 8.6762928,10.7008835 10.3344528,12.3843548 L10.9547928,13.0148777 C10.9918368,13.0478991 11.1270768,13.1120729 11.2305648,13.1120729 L11.2476168,13.1114499 C12.0884568,12.9394891 12.7946448,12.1345132 12.8946048,11.2379495 C12.9016608,11.1694144 12.8358048,10.9912231 12.7811208,10.9320337 L11.3199408,9.53765595 C9.8869848,8.17069224 8.4546168,6.80372853 7.0193088,5.43738787 C6.8652528,5.29034893 6.7952808,5.06854442 6.8352648,4.85297038 C7.0293048,3.81248297 6.7100208,2.7632729 5.9820768,2.04490045 C5.3952528,1.46795952 4.6002768,1.17886601 3.8070648,1.24553197 L4.9965888,2.41623608 C5.4023088,2.81747793 5.4240648,3.48974495 5.0483328,3.91715475 L3.7841328,5.36075317 C3.4266288,5.77320985 2.7563088,5.80000085 2.3670528,5.41558125 L1.17686131,4.24363105 C1.1710608,5.07789012 1.4915208,5.8934578 2.0912808,6.48285966 C2.8092288,7.18939423 3.8494008,7.45356588 4.7966688,7.17880244 C4.8484128,7.16384932 4.9001568,7.15637277 4.9530768,7.15637277 M11.2305648,14.3581656 C10.8401328,14.3581656 10.4026608,14.1793513 10.1404128,13.9139336 L9.5206608,13.2840337 C7.9389408,11.6778202 6.3566328,10.0709836 4.7749128,8.46165489 C3.5289408,8.70838125 2.2212288,8.31150072 1.2904248,7.39624562 C0.1009008,6.22554151 -0.3112872,4.42369144 0.2431968,2.80564005 C0.3108168,2.60938045 0.4660488,2.46171846 0.6577368,2.4124978 C0.8476608,2.36327714 1.0516968,2.41997436 1.1963448,2.56202893 L3.0397248,4.37758601 L4.0687248,3.20314363 L2.2241688,1.38945568 C2.0795208,1.24740111 2.0119008,1.03743449 2.0442408,0.831206146 C2.0748168,0.624977801 2.2035888,0.449278728 2.3829288,0.363921377 C3.8347008,-0.324544848 5.6110488,-0.0186290861 6.7823448,1.13213754 C7.7278488,2.06421489 8.1847248,3.38943449 8.0412528,4.73521462 C9.3989448,6.02741277 10.7525208,7.31961091 12.1066848,8.61180906 L13.5684528,10.0068099 C13.8501048,10.2734737 14.1211728,10.8479224 14.0623728,11.3831193 C13.9030248,12.8198642 12.8140488,14.0603495 11.4739968,14.3338668 C11.3981448,14.349443 11.3152368,14.3581656 11.2305648,14.3581656" id="Fill-1" fill="#FFFFFF" mask="url(#mask-16)"></path>
                </g>
                <g id="icon-)-carret-closed" transform="translate(151.000000, 78.410596) rotate(90.000000) translate(-151.000000, -78.410596) translate(147.000000, 75.231788)">
                    <mask id="mask-18" fill="white">
                        <use xlink:href="#path-17"></use>
                    </mask>
                    <g id="Clip-2"></g>
                    <path d="M7.576608,5.86277298 C7.869088,6.37918093 7.518048,7.04037298 6.947168,7.04037298 L0.734688,7.04037298 C0.163808,7.04037298 -0.187232,6.37918093 0.105248,5.86277298 L3.212128,0.376574305 C3.497248,-0.126270728 4.185248,-0.12525351 4.469728,0.376574305 L7.576608,5.86277298 Z" id="Fill-1" stroke="#031739" stroke-width="0.8" mask="url(#mask-18)"></path>
                </g>
                <g id="Conector" transform="translate(13.200000, 70.569536)">
                    <text id="CONNECTOR" font-family="Raleway-SemiBold, Raleway" font-size="10.8000012" font-weight="500" letter-spacing="0.193846196" fill="#031739">
                        <tspan x="20.4" y="11.6589404">CONNECTOR</tspan>
                    </text>
                    <g id="Icon---connector">
                        <path d="M6.9798624,13.9559536 C6.6082464,13.9559536 6.3078624,13.6376659 6.3078624,13.2439006 L6.3065184,9.73703968 L2.9962464,9.73561558 C2.6253024,9.73561558 2.3242464,9.41661584 2.3242464,9.0235626 C2.3242464,8.63050935 2.6259744,8.31150962 2.9962464,8.31150962 L6.9785184,8.31293372 C7.3501344,8.31293372 7.6505184,8.6312214 7.6505184,9.0249867 L7.6518624,13.2439006 C7.6518624,13.6369539 7.3514784,13.9559536 6.9798624,13.9559536" id="Fill-1" fill="#031739"></path>
                        <g id="Group-5" transform="translate(0.000000, 8.586362)">
                            <mask id="mask-20" fill="white">
                                <use xlink:href="#path-19"></use>
                            </mask>
                            <g id="Clip-4"></g>
                            <path d="M0.672,7.83258278 C0.499968,7.83258278 0.327936,7.76280159 0.196896,7.62395126 C-0.065856,7.34553854 -0.065856,6.89552106 0.196896,6.61710834 L5.961312,0.509829934 C6.224064,0.231417219 6.64944,0.231417219 6.91152,0.509829934 C7.174272,0.787530596 7.174272,1.23826013 6.91152,1.51667285 L1.147104,7.62395126 C1.016064,7.76280159 0.844032,7.83258278 0.672,7.83258278" id="Fill-3" fill="#031739" mask="url(#mask-20)"></path>
                        </g>
                        <path d="M12.4989312,8.10650956 L12.4989312,8.10650956 L8.5166592,8.10579751 C8.1450432,8.10579751 7.8446592,7.78750983 7.8446592,7.39374453 L7.8433152,3.17411857 C7.8433152,2.78106532 8.1443712,2.46206559 8.5153152,2.46206559 C8.8869312,2.46206559 9.1873152,2.78106532 9.1873152,3.17411857 L9.1886592,6.68169155 L12.4989312,6.6824036 C12.8705472,6.6824036 13.1709312,7.00140334 13.1709312,7.39445658 C13.1709312,7.78822188 12.8692032,8.10650956 12.4989312,8.10650956" id="Fill-6" fill="#031739"></path>
                        <path d="M9.058896,7.53216763 C8.886864,7.53216763 8.714832,7.46238644 8.583792,7.32353611 C8.32104,7.04512339 8.32104,6.59510591 8.583792,6.31669319 L14.346864,0.208702728 C14.609616,-0.0697099868 15.034992,-0.0697099868 15.297072,0.208702728 C15.559824,0.486403391 15.559824,0.937132927 15.297072,1.21554564 L9.534,7.32353611 C9.40296,7.46238644 9.230928,7.53216763 9.058896,7.53216763" id="Fill-8" fill="#031739"></path>
                    </g>
                </g>
                <g id="process" transform="translate(12.200000, 35.602649)">
                    <text id="PROCESS" font-family="Raleway-SemiBold, Raleway" font-size="10.8000012" font-weight="500" letter-spacing="0.193846196" fill="#031739">
                        <tspan x="22.4" y="12.718543">PROCESS</tspan>
                    </text>
                    <g id="icon---process" transform="translate(0.800000, 0.423841)">
                        <mask id="mask-22" fill="white">
                            <use xlink:href="#path-21"></use>
                        </mask>
                        <g id="Clip-2"></g>
                        <path d="M1.25,14.4175497 L13.606875,14.4175497 L13.606875,1.32417219 L1.25,1.32417219 L1.25,14.4175497 Z M14.231875,15.742053 L0.625,15.742053 C0.279375,15.742053 0,15.4453642 0,15.0798013 L0,0.66192053 C0,0.296357616 0.279375,-0.000331125828 0.625,-0.000331125828 L14.231875,-0.000331125828 C14.5775,-0.000331125828 14.856875,0.296357616 14.856875,0.66192053 L14.856875,15.0798013 C14.856875,15.4453642 14.5775,15.742053 14.231875,15.742053 L14.231875,15.742053 Z" id="Fill-1" fill="#142747" mask="url(#mask-22)"></path>
                        <path d="M14.0088125,4.85337748 L0.8481875,4.85337748 C0.6763125,4.85337748 0.5356875,4.70503311 0.5356875,4.52225166 C0.5356875,4.3394702 0.6763125,4.19112583 0.8481875,4.19112583 L14.0088125,4.19112583 C14.1819375,4.19112583 14.3213125,4.3394702 14.3213125,4.52225166 C14.3213125,4.70503311 14.1819375,4.85337748 14.0088125,4.85337748" id="Fill-3" fill="#142747" mask="url(#mask-22)"></path>
                        <path d="M2.8405625,1.94403974 C2.4061875,1.94403974 2.0530625,2.31754967 2.0530625,2.77847682 C2.0530625,3.23940397 2.4061875,3.61291391 2.8405625,3.61291391 C3.2749375,3.61291391 3.6280625,3.23940397 3.6280625,2.77847682 C3.6280625,2.31754967 3.2749375,1.94403974 2.8405625,1.94403974" id="Fill-4" fill="#142747" mask="url(#mask-22)"></path>
                        <path d="M4.973125,1.94403974 C4.53875,1.94403974 4.185625,2.31754967 4.185625,2.77847682 C4.185625,3.23940397 4.53875,3.61291391 4.973125,3.61291391 C5.4075,3.61291391 5.760625,3.23940397 5.760625,2.77847682 C5.760625,2.31754967 5.4075,1.94403974 4.973125,1.94403974" id="Fill-5" fill="#142747" mask="url(#mask-22)"></path>
                        <path d="M7.1056875,1.94403974 C6.6713125,1.94403974 6.3181875,2.31754967 6.3181875,2.77847682 C6.3181875,3.23940397 6.6713125,3.61291391 7.1056875,3.61291391 C7.5413125,3.61291391 7.8944375,3.23940397 7.8944375,2.77847682 C7.8944375,2.31754967 7.5413125,1.94403974 7.1056875,1.94403974" id="Fill-6" fill="#142747" mask="url(#mask-22)"></path>
                        <path d="M9.421375,10.2331788 L5.437,10.2331788 C5.091375,10.2331788 4.812,9.93649007 4.812,9.57092715 C4.812,9.20536424 5.091375,8.9086755 5.437,8.9086755 L9.421375,8.9086755 C9.767,8.9086755 10.046375,9.20536424 10.046375,9.57092715 C10.046375,9.93649007 9.767,10.2331788 9.421375,10.2331788" id="Fill-7" fill="#142747" mask="url(#mask-22)"></path>
                        <path d="M7.4291875,12.344106 C7.0835625,12.344106 6.8041875,12.0474172 6.8041875,11.6818543 L6.8041875,7.46 C6.8041875,7.09443709 7.0835625,6.79774834 7.4291875,6.79774834 C7.7748125,6.79774834 8.0541875,7.09443709 8.0541875,7.46 L8.0541875,11.6818543 C8.0541875,12.0474172 7.7748125,12.344106 7.4291875,12.344106" id="Fill-8" fill="#142747" mask="url(#mask-22)"></path>
                    </g>
                    <g id="icon-)-carret-closed" transform="translate(138.800000, 7.841060) rotate(90.000000) translate(-138.800000, -7.841060) translate(134.800000, 4.662252)">
                        <mask id="mask-24" fill="white">
                            <use xlink:href="#path-23"></use>
                        </mask>
                        <g id="Clip-2"></g>
                        <path d="M7.576608,5.86277298 C7.869088,6.37918093 7.518048,7.04037298 6.947168,7.04037298 L0.734688,7.04037298 C0.163808,7.04037298 -0.187232,6.37918093 0.105248,5.86277298 L3.212128,0.376574305 C3.497248,-0.126270728 4.185248,-0.12525351 4.469728,0.376574305 L7.576608,5.86277298 Z" id="Fill-1" stroke="#031739" stroke-width="0.8" mask="url(#mask-24)"></path>
                    </g>
                </g>
                <path d="M7.46798904,0 L160.54373,0 C164.115901,0 167.011719,0.620076655 167.011719,1.38497997 L167.011719,29.0331106 C167.011719,29.7980139 1,29.7980139 1,29.0331106 L1,1.38497997 C1,0.620076655 3.89581733,0 7.46798904,0 Z" id="Rectangle" stroke="#D8D8D8" stroke-width="0.5" fill="#D8D8D8"></path>
                <text id="ADD-OBJECT" font-family="Raleway-Regular, Raleway" font-size="16" font-weight="normal" letter-spacing="0.287179518" fill="#FFFFFF">
                    <tspan x="15.4281024" y="21.9238411">ADD OBJECT</tspan>
                </text>
                <line x1="2.5" y1="60.9271523" x2="165.5" y2="60.9271523" id="Line-4" stroke="#F3F3F3" stroke-linecap="square"></line>
            </g>
        </g>
        <text id="MAPPING" font-family="Raleway-SemiBold, Raleway" font-size="10.8000012" font-weight="500" letter-spacing="0.193846196" fill="#031739">
            <tspan x="33.6" y="300.2">MAPPING</tspan>
        </text>
        <g id="icon-)-carret-closed" transform="translate(151.000000, 297.000000) rotate(90.000000) translate(-151.000000, -297.000000) translate(147.000000, 294.000000)">
            <mask id="mask-26" fill="white">
                <use xlink:href="#path-25"></use>
            </mask>
            <g id="Clip-2"></g>
            <path d="M7.576608,5.532992 C7.869088,6.020352 7.518048,6.644352 6.947168,6.644352 L0.734688,6.644352 C0.163808,6.644352 -0.187232,6.020352 0.105248,5.532992 L3.212128,0.355392 C3.497248,-0.119168 4.185248,-0.118208 4.469728,0.355392 L7.576608,5.532992 Z" id="Fill-1" stroke="#031739" stroke-width="0.8" mask="url(#mask-26)"></path>
        </g>
        <g id="icon---mapping" transform="translate(13.200000, 289.000000)">
            <path d="M15.4796544,8.3330688 L14.1356544,8.3330688 C14.1356544,5.7035328 12.3548544,3.4301568 9.8046144,2.8038528 L10.1244864,1.4988288 C13.2775104,2.2723008 15.4796544,5.0832768 15.4796544,8.3330688" id="Fill-1" fill="#1A2C4B"></path>
            <path d="M2.7470688,8.3330688 L1.4030688,8.3330688 C1.4030688,5.1860928 3.5171808,2.3979648 6.5452128,1.5539328 L6.9060768,2.8482048 C4.4573088,3.5309568 2.7470688,5.7868608 2.7470688,8.3330688" id="Fill-3" fill="#1A2C4B"></path>
            <mask id="mask-28" fill="white">
                <use xlink:href="#path-27"></use>
            </mask>
            <g id="Clip-6"></g>
            <path d="M1.344,10.2506208 L2.913792,10.2506208 L2.913792,8.6808288 L1.344,8.6808288 L1.344,10.2506208 Z M0,11.5946208 L4.257792,11.5946208 L4.257792,7.3368288 L0,7.3368288 L0,11.5946208 Z" id="Fill-5" fill="#031739" mask="url(#mask-28)"></path>
            <path d="M13.968864,10.2506208 L15.537312,10.2506208 L15.537312,8.6808288 L13.968864,8.6808288 L13.968864,10.2506208 Z M12.624864,11.5946208 L16.881312,11.5946208 L16.881312,7.3368288 L12.624864,7.3368288 L12.624864,11.5946208 Z" id="Fill-7" fill="#031739" mask="url(#mask-28)"></path>
            <path d="M7.656096,2.9137248 L9.225888,2.9137248 L9.225888,1.3439328 L7.656096,1.3439328 L7.656096,2.9137248 Z M6.312096,4.2577248 L10.569888,4.2577248 L10.569888,-6.72e-05 L6.312096,-6.72e-05 L6.312096,4.2577248 Z" id="Fill-8" fill="#031739" mask="url(#mask-28)"></path>
            <polygon id="Fill-9" fill="#031739" mask="url(#mask-28)" points="1.561728 2.0421408 6.769728 2.0421408 6.769728 1.3701408 1.561728 1.3701408"></polygon>
            <path d="M1.4070336,0.9712416 C1.0011456,0.9712416 0.6718656,1.3005216 0.6718656,1.7064096 C0.6718656,2.1129696 1.0011456,2.4415776 1.4070336,2.4415776 C1.8135936,2.4415776 2.1422016,2.1129696 2.1422016,1.7064096 C2.1422016,1.3005216 1.8135936,0.9712416 1.4070336,0.9712416" id="Fill-10" fill="#031739" mask="url(#mask-28)"></path>
            <polygon id="Fill-11" fill="#031739" mask="url(#mask-28)" points="10.30176 2.0421408 15.50976 2.0421408 15.50976 1.3701408 10.30176 1.3701408"></polygon>
            <path d="M15.4744128,0.9712416 C15.0685248,0.9712416 14.7392448,1.2991776 14.7392448,1.7064096 C14.7392448,2.1129696 15.0685248,2.4415776 15.4744128,2.4415776 C15.8809728,2.4415776 16.2095808,2.1129696 16.2095808,1.7064096 C16.2095808,1.2991776 15.8809728,0.9712416 15.4744128,0.9712416" id="Fill-12" fill="#031739" mask="url(#mask-28)"></path>
        </g>
    </g>
</svg>